<svg width="24" height="24" viewBox="0 0 24 24" fill="none" xmlns="http://www.w3.org/2000/svg">
<path d="M18.8613 5.13861C18.6764 4.9538 18.3478 4.9538 18.1629 5.13861L12 11.2992L5.83712 5.13861C5.65224 4.9538 5.32355 4.9538 5.13866 5.13861C4.95378 5.32343 4.95378 5.652 5.13866 5.83682L11.3015 11.9974L5.13866 18.158C4.95378 18.3429 4.95378 18.6714 5.13866 18.8563C5.24138 18.9589 5.36464 19 5.48789 19C5.61115 19 5.73441 18.9589 5.83712 18.8563L12 12.6956L18.1629 18.8563C18.2656 18.9589 18.3888 19 18.5121 19C18.6354 19 18.7586 18.9589 18.8613 18.8563C19.0462 18.6714 19.0462 18.3429 18.8613 18.158L12.6985 11.9974L18.8613 5.83682C19.0462 5.652 19.0462 5.34397 18.8613 5.13861Z" fill="#B9C1D9"/>
</svg>
