<svg width="24" height="24" viewBox="0 0 24 24" fill="none" xmlns="http://www.w3.org/2000/svg">
<path d="M8.76015 19.8512L8.76015 19.852C8.75756 20.2035 8.46524 20.5 8.08955 20.5H6.27427C4.7348 20.5 3.5 19.2731 3.5 17.7757V9.60438C3.51463 9.0586 3.77724 8.54554 4.21949 8.20798L4.21954 8.20805L4.22703 8.20211L10.4023 3.29887L10.4036 3.29787C11.1206 2.72478 11.5807 2.50764 11.9848 2.50021C12.3814 2.49291 12.8523 2.68675 13.5912 3.29367L13.5912 3.29373L13.5977 3.29887L19.773 8.20211L19.7729 8.20218L19.7805 8.20798C20.2228 8.54554 20.4854 9.05858 20.5 9.60435V17.7757C20.5 19.2731 19.2652 20.5 17.7257 20.5H15.9105C15.5348 20.5 15.2424 20.2035 15.2399 19.852L15.2398 19.8512L15.2144 16.9738C15.2144 16.973 15.2144 16.9722 15.2144 16.9714C15.2131 15.9557 14.3786 15.1457 13.3657 15.1457H10.6343C9.62135 15.1457 8.78688 15.9557 8.78558 16.9715C8.78558 16.9722 8.78558 16.973 8.78558 16.9738L8.76015 19.8512Z" fill="white" stroke="white"/>
</svg>
