<svg width="24" height="24" viewBox="0 0 24 24" fill="none" xmlns="http://www.w3.org/2000/svg">
<path d="M20.1 11.2791H19.218C18.7203 11.2791 18.318 11.6022 18.318 12C18.318 12.3969 18.7203 12.7191 19.218 12.7191H20.1C20.5968 12.7191 21 12.3978 21 12C21 11.6031 20.5959 11.2791 20.1 11.2791ZM12 7.05C11.3494 7.04798 10.7048 7.17464 10.1033 7.42268C9.50186 7.67073 8.95537 8.03526 8.49532 8.49532C8.03526 8.95537 7.67073 9.50186 7.42268 10.1033C7.17464 10.7048 7.04798 11.3494 7.05 12C7.05 14.7459 9.2541 16.95 12 16.95C14.745 16.95 16.95 14.7459 16.95 12C16.95 9.2541 14.7441 7.05 12 7.05ZM12 15.6C10.0101 15.6 8.4 13.9881 8.4 12C8.4 10.0101 10.0101 8.4 12 8.4C12.9548 8.4 13.8705 8.77928 14.5456 9.45442C15.2207 10.1295 15.6 11.0452 15.6 12C15.6 12.9548 15.2207 13.8705 14.5456 14.5456C13.8705 15.2207 12.9548 15.6 12 15.6ZM5.7 12C5.7 11.6031 5.2959 11.2791 4.8 11.2791H3.9C3.4023 11.2791 3 11.6022 3 12C3 12.3969 3.4023 12.7191 3.9 12.7191H4.8C5.2959 12.7191 5.7 12.3969 5.7 12ZM12 5.7C12.3969 5.7 12.7191 5.2977 12.7191 4.8V3.9C12.7191 3.4023 12.3969 3 12 3C11.6022 3 11.2791 3.4023 11.2791 3.9V4.8C11.2791 5.2977 11.6022 5.7 12 5.7ZM12 18.3C11.6022 18.3 11.2791 18.7023 11.2791 19.2V20.1C11.2791 20.5977 11.6022 21 12 21C12.3969 21 12.7191 20.5977 12.7191 20.1V19.2C12.7191 18.7023 12.3969 18.3 12 18.3ZM18.6285 6.3894C18.9804 6.0375 19.0371 5.5245 18.7563 5.2437C18.4755 4.9629 17.9616 5.0205 17.6115 5.3724L16.9815 6.0015C16.6296 6.3534 16.5729 6.8664 16.8537 7.1472C17.1345 7.428 17.6484 7.3704 17.9994 7.0185L18.6285 6.3894ZM6.0006 16.9797L5.3706 17.6106C5.0187 17.9625 4.962 18.4737 5.2428 18.7545C5.5236 19.0353 6.0375 18.9795 6.3876 18.6276L7.0176 17.9985C7.3695 17.6466 7.4262 17.1336 7.1454 16.8519C6.8646 16.5702 6.3507 16.6296 6.0006 16.9797ZM6.3885 5.3715C6.0375 5.0196 5.5236 4.962 5.2428 5.2428C4.962 5.5236 5.0196 6.0375 5.3697 6.3894L5.9997 7.0185C6.3516 7.3704 6.8637 7.428 7.1445 7.1472C7.4253 6.8664 7.3686 6.3525 7.0176 6.0015L6.3885 5.3715ZM16.9806 17.9994L17.6106 18.6285C17.9625 18.9804 18.4746 19.0362 18.7554 18.7572C19.0362 18.4764 18.9795 17.9625 18.6276 17.6115L17.9985 16.9824C17.6466 16.6305 17.1336 16.5729 16.8519 16.8537C16.5702 17.1345 16.6287 17.6475 16.9806 17.9994Z" fill="white"/>
</svg>
