<svg width="24" height="24" viewBox="0 0 24 24" fill="none" xmlns="http://www.w3.org/2000/svg">
<path d="M19.8842 16.7841C19.7986 16.5872 19.6553 16.4172 19.471 16.2937C19.2867 16.1703 19.069 16.0985 18.8431 16.0866C17.4948 16.01 16.1969 15.5773 15.0984 14.8385C13.9999 14.0996 13.1453 13.0844 12.6329 11.9096C12.1205 10.7347 11.971 9.44785 12.2016 8.19673C12.4322 6.94561 13.0334 5.78099 13.9364 4.83665C14.076 4.68432 14.1695 4.49963 14.2074 4.30178C14.2453 4.10393 14.2261 3.90016 14.1518 3.71165C14.0662 3.51474 13.9229 3.3447 13.7386 3.22125C13.5543 3.09779 13.3366 3.02598 13.1106 3.01415C11.6921 2.93929 10.2735 3.16218 8.95794 3.66665C7.62742 4.17684 6.43612 4.96204 5.4724 5.96401C4.50868 6.96599 3.79724 8.15904 3.39085 9.45471C2.98446 10.7504 2.89354 12.1154 3.12483 13.4486C3.35612 14.7818 3.90368 16.049 4.72692 17.1561C5.55016 18.2633 6.62796 19.182 7.88039 19.8443C9.13283 20.5065 10.5278 20.8952 11.9618 20.9816C13.3958 21.068 14.8321 20.8498 16.1642 20.3432C17.4963 19.8367 18.69 19.0547 19.6568 18.0554C19.8288 17.8909 19.9428 17.6808 19.9834 17.4534C20.0241 17.226 19.9895 16.9924 19.8842 16.7841Z" fill="white"/>
</svg>
