<svg width="24" height="24" viewBox="0 0 24 24" fill="none" xmlns="http://www.w3.org/2000/svg">
<path d="M12 2.5C14.0271 2.5 15.7 4.0704 15.7 5.74994C15.7 7.42949 14.0271 8.99988 12 8.99988C9.97295 8.99988 8.3 7.42949 8.3 5.74994C8.3 4.0704 9.97295 2.5 12 2.5ZM5.5 18.6972C5.5 14.5178 8.6461 11.2499 12 11.2499C15.3539 11.2499 18.5 14.5178 18.5 18.6972C18.5 19.4841 17.8784 20.1851 16.6191 20.7132C15.3865 21.2302 13.7074 21.5 12 21.5C10.2926 21.5 8.61349 21.2302 7.38088 20.7132C6.12157 20.1851 5.5 19.4841 5.5 18.6972Z" stroke="white"/>
</svg>
